<svg width="32" height="32" viewBox="0 0 32 32" fill="none" xmlns="http://www.w3.org/2000/svg">
<circle cx="16" cy="16" r="16" fill="url(#paint0_linear_816_610)"/>
<path d="M15.5999 4C16.0748 4 16.6021 4.22578 16.8656 4.73828H16.8665L18.2406 7.41797L18.2513 7.44043C18.9008 8.8766 19.6539 10.2646 20.5042 11.5918L22.9457 15.4023C23.5705 16.3779 23.9749 17.4788 24.1292 18.627C24.2835 19.7752 24.1844 20.9439 23.8392 22.0498C23.4939 23.1559 22.9104 24.1736 22.1302 25.0303C21.3501 25.8869 20.3916 26.5619 19.3226 27.0088L18.9935 27.1465C17.9187 27.5957 16.7649 27.8271 15.5999 27.8271C14.4352 27.8271 13.2811 27.5956 12.2064 27.1465V27.1455L11.8783 27.0088C10.8093 26.562 9.84988 25.8868 9.06967 25.0303C8.28959 24.1737 7.70594 23.1557 7.36069 22.0498C7.0156 20.9439 6.91633 19.7751 7.07065 18.627C7.22505 17.4787 7.6293 16.3779 8.25425 15.4023L10.6966 11.5918C11.5432 10.2703 12.2914 8.71983 12.9593 7.41797L14.3343 4.73828C14.5976 4.22563 15.1251 4.00022 15.5999 4ZM15.596 15.9199C13.6091 15.9202 11.9984 17.5315 11.9984 19.5186C11.9986 21.5054 13.6092 23.116 15.596 23.1162C17.5831 23.1162 19.1944 21.5055 19.1947 19.5186C19.1947 17.5314 17.5832 15.9199 15.596 15.9199Z" fill="#1A9F86"/>
<defs>
<linearGradient id="paint0_linear_816_610" x1="16" y1="0" x2="16" y2="32" gradientUnits="userSpaceOnUse">
<stop/>
<stop offset="1" stop-color="#121212"/>
</linearGradient>
</defs>
</svg>
