<svg width="2963" height="446" viewBox="0 0 2963 446" fill="none" xmlns="http://www.w3.org/2000/svg">
<path d="M1153.09 189.517C1159.53 178.7 1168.03 170.329 1178.59 164.405C1189.41 158.224 1202.15 155.133 1216.84 155.133V200.721H1205.63C1188.38 200.721 1175.24 205.1 1166.23 213.857C1157.47 222.614 1153.09 237.81 1153.09 259.445V371.484H1109.05V158.61H1153.09V189.517Z" fill="white"/>
<path d="M1050.93 158.607V371.481H1006.89V346.369C999.938 355.126 990.794 362.08 979.462 367.231C968.386 372.125 956.539 374.572 943.918 374.572C927.177 374.572 912.109 371.095 898.716 364.141C885.581 357.187 875.149 346.884 867.423 333.233C859.953 319.583 856.219 303.099 856.219 283.782V158.607H899.875V277.214C899.875 296.274 904.64 310.954 914.17 321.257C923.7 331.302 936.706 336.324 953.19 336.324C969.674 336.324 982.681 331.302 992.211 321.257C1002 310.954 1006.89 296.274 1006.89 277.214V158.607H1050.93Z" fill="white"/>
<path d="M704.107 374.961C684.017 374.961 665.859 370.453 649.633 361.439C633.406 352.167 620.657 339.289 611.385 322.805C602.113 306.063 597.477 286.746 597.477 264.854C597.477 243.218 602.241 224.03 611.771 207.289C621.301 190.547 634.308 177.669 650.792 168.655C667.275 159.64 685.691 155.133 706.038 155.133C726.386 155.133 744.801 159.64 761.285 168.655C777.769 177.669 790.776 190.547 800.306 207.289C809.835 224.03 814.6 243.218 814.6 264.854C814.6 286.489 809.706 305.677 799.919 322.418C790.132 339.16 776.739 352.167 759.74 361.439C742.998 370.453 724.454 374.961 704.107 374.961ZM704.107 336.713C715.439 336.713 725.999 334.009 735.787 328.6C745.831 323.191 753.945 315.078 760.126 304.26C766.308 293.443 769.398 280.307 769.398 264.854C769.398 249.4 766.436 236.393 760.512 225.833C754.589 215.016 746.733 206.902 736.946 201.494C727.158 196.085 716.598 193.381 705.266 193.381C693.933 193.381 683.373 196.085 673.586 201.494C664.056 206.902 656.458 215.016 650.792 225.833C645.125 236.393 642.292 249.4 642.292 264.854C642.292 287.776 648.087 305.548 659.677 318.169C671.525 330.532 686.335 336.713 704.107 336.713Z" fill="white"/>
<path d="M569.762 182.949C569.762 196.6 566.542 209.478 560.103 221.583C553.664 233.689 543.362 243.605 529.196 251.331C515.03 258.801 496.872 262.535 474.722 262.535H426.043V371.483H382V102.977H474.722C495.327 102.977 512.712 106.582 526.878 113.794C541.301 120.748 551.99 130.278 558.944 142.383C566.156 154.489 569.762 168.011 569.762 182.949ZM474.722 226.606C491.463 226.606 503.955 222.871 512.197 215.402C520.439 207.675 524.56 196.857 524.56 182.949C524.56 153.587 507.947 138.906 474.722 138.906H426.043V226.606H474.722Z" fill="white"/>
<path d="M2875.68 155.131C2892.43 155.131 2907.36 158.608 2920.5 165.562C2933.89 172.516 2944.32 182.819 2951.79 196.469C2959.26 210.12 2963 226.604 2963 245.921V371.482H2919.34V252.489C2919.34 233.429 2914.58 218.877 2905.05 208.832C2895.52 198.53 2882.51 193.379 2866.03 193.379C2849.54 193.379 2836.41 198.53 2826.62 208.832C2817.09 218.877 2812.32 233.429 2812.32 252.489V371.482H2768.28V158.608H2812.32V182.947C2819.54 174.19 2828.68 167.365 2839.75 162.471C2851.09 157.578 2863.06 155.131 2875.68 155.131Z" fill="#1A9F86"/>
<path d="M2614.29 374.959C2594.2 374.959 2576.04 370.451 2559.81 361.437C2543.59 352.165 2530.84 339.287 2521.56 322.803C2512.29 306.061 2507.66 286.744 2507.66 264.852C2507.66 243.217 2512.42 224.028 2521.95 207.287C2531.48 190.545 2544.49 177.667 2560.97 168.653C2577.46 159.638 2595.87 155.131 2616.22 155.131C2636.57 155.131 2654.98 159.638 2671.46 168.653C2687.95 177.667 2700.96 190.545 2710.49 207.287C2720.01 224.028 2724.78 243.217 2724.78 264.852C2724.78 286.487 2719.89 305.675 2710.1 322.416C2700.31 339.158 2686.92 352.165 2669.92 361.437C2653.18 370.451 2634.63 374.959 2614.29 374.959ZM2614.29 336.711C2625.62 336.711 2636.18 334.007 2645.97 328.598C2656.01 323.189 2664.12 315.076 2670.31 304.258C2676.49 293.441 2679.58 280.305 2679.58 264.852C2679.58 249.398 2676.62 236.391 2670.69 225.831C2664.77 215.014 2656.91 206.901 2647.13 201.492C2637.34 196.083 2626.78 193.379 2615.45 193.379C2604.11 193.379 2593.55 196.083 2583.77 201.492C2574.24 206.901 2566.64 215.014 2560.97 225.831C2555.31 236.391 2552.47 249.398 2552.47 264.852C2552.47 287.775 2558.27 305.546 2569.86 318.167C2581.7 330.53 2596.51 336.711 2614.29 336.711Z" fill="#1A9F86"/>
<path d="M2442.48 130.406C2434.5 130.406 2427.8 127.701 2422.39 122.293C2416.99 116.884 2414.28 110.187 2414.28 102.203C2414.28 94.2185 2416.99 87.5219 2422.39 82.1132C2427.8 76.7044 2434.5 74 2442.48 74C2450.21 74 2456.78 76.7044 2462.19 82.1132C2467.6 87.5219 2470.3 94.2185 2470.3 102.203C2470.3 110.187 2467.6 116.884 2462.19 122.293C2456.78 127.701 2450.21 130.406 2442.48 130.406ZM2464.12 158.609V371.482H2420.08V158.609H2464.12Z" fill="#1A9F86"/>
<path d="M2327.71 194.538V312.372C2327.71 320.356 2329.51 326.152 2333.11 329.757C2336.98 333.106 2343.42 334.78 2352.43 334.78H2379.48V371.482H2344.7C2324.87 371.482 2309.68 366.846 2299.12 357.574C2288.56 348.302 2283.28 333.234 2283.28 312.372V194.538H2258.16V158.608H2283.28V105.68H2327.71V158.608H2379.48V194.538H2327.71Z" fill="#1A9F86"/>
<path d="M2030.01 264.852C2030.01 242.959 2034.39 223.771 2043.14 207.287C2052.16 190.545 2064.52 177.667 2080.23 168.653C2095.94 159.638 2113.97 155.131 2134.32 155.131C2160.08 155.131 2181.32 161.312 2198.07 173.675C2215.07 185.781 2226.53 203.166 2232.45 225.831H2184.93C2181.07 215.271 2174.89 207.029 2166.39 201.105C2157.89 195.182 2147.2 192.22 2134.32 192.22C2116.29 192.22 2101.87 198.659 2091.05 211.537C2080.49 224.157 2075.21 241.929 2075.21 264.852C2075.21 287.775 2080.49 305.675 2091.05 318.553C2101.87 331.431 2116.29 337.87 2134.32 337.87C2159.82 337.87 2176.69 326.666 2184.93 304.258H2232.45C2226.27 325.893 2214.68 343.15 2197.68 356.028C2180.68 368.649 2159.56 374.959 2134.32 374.959C2113.97 374.959 2095.94 370.451 2080.23 361.437C2064.52 352.165 2052.16 339.287 2043.14 322.803C2034.39 306.061 2030.01 286.744 2030.01 264.852Z" fill="#1A9F86"/>
<path d="M2001.32 259.829C2001.32 267.814 2000.81 275.025 1999.78 281.464H1837.13C1838.42 298.463 1844.73 312.114 1856.06 322.416C1867.39 332.719 1881.3 337.87 1897.78 337.87C1921.48 337.87 1938.22 327.954 1948.01 308.122H1995.53C1989.09 327.696 1977.37 343.794 1960.37 356.414C1943.63 368.777 1922.77 374.959 1897.78 374.959C1877.44 374.959 1859.15 370.451 1842.92 361.437C1826.95 352.165 1814.33 339.287 1805.06 322.803C1796.05 306.061 1791.54 286.744 1791.54 264.852C1791.54 242.959 1795.92 223.771 1804.67 207.287C1813.69 190.545 1826.18 177.667 1842.15 168.653C1858.38 159.638 1876.92 155.131 1897.78 155.131C1917.87 155.131 1935.77 159.509 1951.48 168.266C1967.2 177.023 1979.43 189.386 1988.19 205.355C1996.94 221.066 2001.32 239.224 2001.32 259.829ZM1955.35 245.921C1955.09 229.695 1949.29 216.688 1937.96 206.901C1926.63 197.113 1912.59 192.22 1895.85 192.22C1880.66 192.22 1867.65 197.113 1856.83 206.901C1846.01 216.43 1839.57 229.437 1837.51 245.921H1955.35Z" fill="#1A9F86"/>
<path d="M1702.02 189.515C1708.46 178.698 1716.96 170.327 1727.52 164.403C1738.34 158.222 1751.08 155.131 1765.77 155.131V200.719H1754.56C1737.31 200.719 1724.17 205.098 1715.16 213.855C1706.4 222.612 1702.02 237.808 1702.02 259.443V371.482H1657.98V158.608H1702.02V189.515Z" fill="#1A9F86"/>
<path d="M1578.51 130.406C1570.52 130.406 1563.83 127.701 1558.42 122.293C1553.01 116.884 1550.3 110.187 1550.3 102.203C1550.3 94.2185 1553.01 87.5219 1558.42 82.1132C1563.83 76.7044 1570.52 74 1578.51 74C1586.23 74 1592.8 76.7044 1598.21 82.1132C1603.62 87.5219 1606.32 94.2185 1606.32 102.203C1606.32 110.187 1603.62 116.884 1598.21 122.293C1592.8 127.701 1586.23 130.406 1578.51 130.406ZM1600.14 158.609V371.482H1556.1V158.609H1600.14Z" fill="#1A9F86"/>
<path d="M1369.88 102.975C1398.47 102.975 1423.45 108.512 1444.83 119.587C1466.46 130.405 1483.08 146.116 1494.67 166.721C1506.51 187.068 1512.44 210.892 1512.44 238.194C1512.44 265.495 1506.51 289.191 1494.67 309.281C1483.08 329.37 1466.46 344.824 1444.83 355.642C1423.45 366.202 1398.47 371.481 1369.88 371.481H1282.18V102.975H1369.88ZM1369.88 335.552C1401.3 335.552 1425.38 327.052 1442.12 310.053C1458.87 293.054 1467.24 269.101 1467.24 238.194C1467.24 207.029 1458.87 182.69 1442.12 165.175C1425.38 147.661 1401.3 138.904 1369.88 138.904H1326.22V335.552H1369.88Z" fill="#1A9F86"/>
<path d="M158.226 0C164.808 0 171.443 3.09919 174.657 9.35938L201.418 61.54C201.422 61.5472 201.426 61.5552 201.429 61.5625C214.262 89.9402 229.139 117.349 245.942 143.572L293.488 217.776C304.931 235.642 312.324 255.796 315.149 276.822C317.973 297.849 316.161 319.24 309.839 339.492C303.517 359.744 292.838 378.367 278.553 394.053C264.267 409.738 246.721 422.107 227.147 430.29L220.741 432.966C200.938 441.242 179.689 445.504 158.226 445.504C136.763 445.504 115.513 441.242 95.7101 432.966L89.3049 430.29C69.7286 422.11 52.1799 409.742 37.8928 394.057C23.6058 378.371 12.9261 359.748 6.6037 339.495C0.281316 319.242 -1.53108 297.85 1.29511 276.822C4.12137 255.795 11.5177 235.641 22.9631 217.776L70.51 143.572C87.3054 117.354 102.176 86.5853 115.025 61.54L141.794 9.35938C145.008 3.09912 151.643 8.47298e-05 158.226 0ZM158.223 222.919C119.527 222.919 88.1578 254.289 88.1574 292.984C88.1574 331.68 119.527 363.049 158.223 363.05C196.919 363.05 228.288 331.68 228.288 292.984C228.288 254.289 196.919 222.919 158.223 222.919Z" fill="#1A9F86"/>
</svg>
