<svg width="568" height="799" viewBox="0 0 568 799" fill="none" xmlns="http://www.w3.org/2000/svg">
<path fill-rule="evenodd" clip-rule="evenodd" d="M283.625 0C295.143 0.000193935 306.712 5.33679 312.495 16.0693L312.767 16.585L360.804 110.251C360.807 110.258 360.811 110.266 360.815 110.273C383.859 161.23 410.572 210.448 440.743 257.536L526.093 390.734C546.601 422.755 559.853 458.878 564.915 496.564C569.977 534.251 566.729 572.59 555.398 608.888C544.066 645.185 524.926 678.563 499.322 706.677C473.719 734.79 442.271 756.959 407.188 771.625L395.691 776.429C360.192 791.265 322.1 798.905 283.625 798.905C245.151 798.905 207.058 791.265 171.559 776.429L160.062 771.625C124.975 756.963 93.5231 734.797 67.9162 706.685C42.3092 678.572 23.167 645.192 11.8351 608.893C0.503395 572.593 -2.7439 534.253 2.32143 496.564C7.38687 458.876 20.6424 422.754 41.1564 390.734L126.506 257.536L127.917 255.323C157.501 208.729 183.733 154.494 206.43 110.252L254.484 16.585L254.754 16.0693C260.537 5.3365 272.107 4.42569e-05 283.625 0ZM283.612 399.754C214.151 399.754 157.842 456.063 157.842 525.524C157.842 594.985 214.151 651.295 283.612 651.295C353.073 651.295 409.383 594.985 409.383 525.524C409.383 456.064 353.073 399.754 283.612 399.754Z" fill="#1A9F86"/>
</svg>
