<svg width="2581" height="301" viewBox="0 0 2581 301" fill="none" xmlns="http://www.w3.org/2000/svg">
<path d="M771.09 115.517C777.529 104.7 786.028 96.3289 796.588 90.405C807.406 84.2235 820.155 81.1328 834.836 81.1328V126.721H823.632C806.376 126.721 793.24 131.1 784.225 139.857C775.468 148.614 771.09 163.81 771.09 185.445V297.484H727.047V84.6099H771.09V115.517Z" fill="white"/>
<path d="M668.934 84.6074V297.481H624.892V272.369C617.938 281.126 608.794 288.08 597.462 293.231C586.386 298.125 574.539 300.572 561.918 300.572C545.177 300.572 530.109 297.095 516.716 290.141C503.581 283.187 493.149 272.884 485.423 259.233C477.953 245.583 474.219 229.099 474.219 209.782V84.6074H517.875V203.214C517.875 222.274 522.64 236.954 532.17 247.257C541.7 257.302 554.706 262.324 571.19 262.324C587.674 262.324 600.681 257.302 610.211 247.257C619.998 236.954 624.892 222.274 624.892 203.214V84.6074H668.934Z" fill="white"/>
<path d="M322.107 300.961C302.017 300.961 283.859 296.453 267.633 287.439C251.406 278.167 238.657 265.289 229.385 248.805C220.113 232.063 215.477 212.746 215.477 190.854C215.477 169.218 220.241 150.03 229.771 133.289C239.301 116.547 252.308 103.669 268.792 94.6547C285.275 85.6401 303.691 81.1328 324.038 81.1328C344.386 81.1328 362.801 85.6401 379.285 94.6547C395.769 103.669 408.776 116.547 418.306 133.289C427.835 150.03 432.6 169.218 432.6 190.854C432.6 212.489 427.706 231.677 417.919 248.418C408.132 265.16 394.739 278.167 377.74 287.439C360.998 296.453 342.454 300.961 322.107 300.961ZM322.107 262.713C333.439 262.713 343.999 260.009 353.787 254.6C363.831 249.191 371.945 241.078 378.126 230.26C384.308 219.443 387.398 206.307 387.398 190.854C387.398 175.4 384.436 162.393 378.512 151.833C372.589 141.016 364.733 132.902 354.946 127.494C345.158 122.085 334.598 119.381 323.266 119.381C311.933 119.381 301.373 122.085 291.586 127.494C282.056 132.902 274.458 141.016 268.792 151.833C263.125 162.393 260.292 175.4 260.292 190.854C260.292 213.776 266.087 231.548 277.677 244.169C289.525 256.532 304.335 262.713 322.107 262.713Z" fill="white"/>
<path d="M187.762 108.949C187.762 122.6 184.542 135.478 178.103 147.583C171.664 159.689 161.362 169.605 147.196 177.331C133.03 184.801 114.872 188.535 92.7218 188.535H44.0429V297.483H0V28.9766H92.7218C113.327 28.9766 130.712 32.5824 144.878 39.7941C159.301 46.7482 169.99 56.278 176.944 68.3833C184.156 80.4887 187.762 94.0106 187.762 108.949ZM92.7218 152.606C109.463 152.606 121.955 148.871 130.197 141.402C138.439 133.675 142.56 122.857 142.56 108.949C142.56 79.5872 125.947 64.9063 92.7218 64.9063H44.0429V152.606H92.7218Z" fill="white"/>
<path d="M2493.68 81.1309C2510.43 81.1309 2525.36 84.6079 2538.5 91.562C2551.89 98.5162 2562.32 108.819 2569.79 122.469C2577.26 136.12 2581 152.604 2581 171.921V297.482H2537.34V178.489C2537.34 159.429 2532.58 144.877 2523.05 134.832C2513.52 124.53 2500.51 119.379 2484.03 119.379C2467.54 119.379 2454.41 124.53 2444.62 134.832C2435.09 144.877 2430.32 159.429 2430.32 178.489V297.482H2386.28V84.6079H2430.32V108.947C2437.54 100.19 2446.68 93.365 2457.75 88.4713C2469.09 83.5777 2481.06 81.1309 2493.68 81.1309Z" fill="#1A9F86"/>
<path d="M2232.29 300.959C2212.2 300.959 2194.04 296.451 2177.81 287.437C2161.59 278.165 2148.84 265.287 2139.56 248.803C2130.29 232.061 2125.66 212.744 2125.66 190.852C2125.66 169.217 2130.42 150.028 2139.95 133.287C2149.48 116.545 2162.49 103.667 2178.97 94.6528C2195.46 85.6382 2213.87 81.1309 2234.22 81.1309C2254.57 81.1309 2272.98 85.6382 2289.46 94.6528C2305.95 103.667 2318.96 116.545 2328.49 133.287C2338.01 150.028 2342.78 169.217 2342.78 190.852C2342.78 212.487 2337.89 231.675 2328.1 248.416C2318.31 265.158 2304.92 278.165 2287.92 287.437C2271.18 296.451 2252.63 300.959 2232.29 300.959ZM2232.29 262.711C2243.62 262.711 2254.18 260.007 2263.97 254.598C2274.01 249.189 2282.12 241.076 2288.31 230.258C2294.49 219.441 2297.58 206.305 2297.58 190.852C2297.58 175.398 2294.62 162.391 2288.69 151.831C2282.77 141.014 2274.91 132.901 2265.13 127.492C2255.34 122.083 2244.78 119.379 2233.45 119.379C2222.11 119.379 2211.55 122.083 2201.77 127.492C2192.24 132.901 2184.64 141.014 2178.97 151.831C2173.31 162.391 2170.47 175.398 2170.47 190.852C2170.47 213.775 2176.27 231.546 2187.86 244.167C2199.7 256.53 2214.51 262.711 2232.29 262.711Z" fill="#1A9F86"/>
<path d="M2060.48 56.4058C2052.5 56.4058 2045.8 53.7014 2040.39 48.2926C2034.99 42.8838 2032.28 36.1873 2032.28 28.2029C2032.28 20.2185 2034.99 13.5219 2040.39 8.11317C2045.8 2.70439 2052.5 0 2060.48 0C2068.21 0 2074.78 2.70439 2080.19 8.11317C2085.6 13.5219 2088.3 20.2185 2088.3 28.2029C2088.3 36.1873 2085.6 42.8838 2080.19 48.2926C2074.78 53.7014 2068.21 56.4058 2060.48 56.4058ZM2082.12 84.6087V297.482H2038.08V84.6087H2082.12Z" fill="#1A9F86"/>
<path d="M1945.71 120.538V238.372C1945.71 246.356 1947.51 252.152 1951.11 255.757C1954.98 259.106 1961.42 260.78 1970.43 260.78H1997.48V297.482H1962.7C1942.87 297.482 1927.68 292.846 1917.12 283.574C1906.56 274.302 1901.28 259.234 1901.28 238.372V120.538H1876.16V84.6084H1901.28V31.6797H1945.71V84.6084H1997.48V120.538H1945.71Z" fill="#1A9F86"/>
<path d="M1648.01 190.852C1648.01 168.959 1652.39 149.771 1661.14 133.287C1670.16 116.545 1682.52 103.667 1698.23 94.6528C1713.94 85.6382 1731.97 81.1309 1752.32 81.1309C1778.08 81.1309 1799.32 87.3123 1816.07 99.6752C1833.07 111.781 1844.53 129.166 1850.45 151.831H1802.93C1799.07 141.271 1792.89 133.029 1784.39 127.105C1775.89 121.182 1765.2 118.22 1752.32 118.22C1734.29 118.22 1719.87 124.659 1709.05 137.537C1698.49 150.157 1693.21 167.929 1693.21 190.852C1693.21 213.775 1698.49 231.675 1709.05 244.553C1719.87 257.431 1734.29 263.87 1752.32 263.87C1777.82 263.87 1794.69 252.666 1802.93 230.258H1850.45C1844.27 251.893 1832.68 269.15 1815.68 282.028C1798.68 294.649 1777.56 300.959 1752.32 300.959C1731.97 300.959 1713.94 296.451 1698.23 287.437C1682.52 278.165 1670.16 265.287 1661.14 248.803C1652.39 232.061 1648.01 212.744 1648.01 190.852Z" fill="#1A9F86"/>
<path d="M1619.32 185.829C1619.32 193.814 1618.81 201.025 1617.78 207.464H1455.13C1456.42 224.463 1462.73 238.114 1474.06 248.416C1485.39 258.719 1499.3 263.87 1515.78 263.87C1539.48 263.87 1556.22 253.954 1566.01 234.122H1613.53C1607.09 253.696 1595.37 269.794 1578.37 282.414C1561.63 294.777 1540.77 300.959 1515.78 300.959C1495.44 300.959 1477.15 296.451 1460.92 287.437C1444.95 278.165 1432.33 265.287 1423.06 248.803C1414.05 232.061 1409.54 212.744 1409.54 190.852C1409.54 168.959 1413.92 149.771 1422.67 133.287C1431.69 116.545 1444.18 103.667 1460.15 94.6528C1476.38 85.6382 1494.92 81.1309 1515.78 81.1309C1535.87 81.1309 1553.77 85.5094 1569.48 94.2664C1585.2 103.023 1597.43 115.386 1606.19 131.355C1614.94 147.066 1619.32 165.224 1619.32 185.829ZM1573.35 171.921C1573.09 155.695 1567.29 142.688 1555.96 132.901C1544.63 123.113 1530.59 118.22 1513.85 118.22C1498.66 118.22 1485.65 123.113 1474.83 132.901C1464.01 142.43 1457.57 155.437 1455.51 171.921H1573.35Z" fill="#1A9F86"/>
<path d="M1320.02 115.515C1326.46 104.698 1334.96 96.3269 1345.52 90.403C1356.34 84.2216 1369.08 81.1309 1383.77 81.1309V126.719H1372.56C1355.31 126.719 1342.17 131.098 1333.16 139.855C1324.4 148.612 1320.02 163.808 1320.02 185.443V297.482H1275.98V84.6079H1320.02V115.515Z" fill="#1A9F86"/>
<path d="M1196.51 56.4058C1188.52 56.4058 1181.83 53.7014 1176.42 48.2926C1171.01 42.8838 1168.3 36.1873 1168.3 28.2029C1168.3 20.2185 1171.01 13.5219 1176.42 8.11317C1181.83 2.70439 1188.52 0 1196.51 0C1204.23 0 1210.8 2.70439 1216.21 8.11317C1221.62 13.5219 1224.32 20.2185 1224.32 28.2029C1224.32 36.1873 1221.62 42.8838 1216.21 48.2926C1210.8 53.7014 1204.23 56.4058 1196.51 56.4058ZM1218.14 84.6087V297.482H1174.1V84.6087H1218.14Z" fill="#1A9F86"/>
<path d="M987.879 28.9746C1016.47 28.9746 1041.45 34.5122 1062.83 45.5873C1084.46 56.4048 1101.08 72.116 1112.67 92.7208C1124.51 113.068 1130.44 136.892 1130.44 164.194C1130.44 191.495 1124.51 215.191 1112.67 235.281C1101.08 255.37 1084.46 270.824 1062.83 281.642C1041.45 292.202 1016.47 297.481 987.879 297.481H900.18V28.9746H987.879ZM987.879 261.552C1019.3 261.552 1043.38 253.052 1060.12 236.053C1076.87 219.054 1085.24 195.101 1085.24 164.194C1085.24 133.029 1076.87 108.69 1060.12 91.1755C1043.38 73.6614 1019.3 64.9043 987.879 64.9043H944.223V261.552H987.879Z" fill="#1A9F86"/>
</svg>
